<svg height="496pt" viewBox="0 0 496 496" width="496pt" xmlns="http://www.w3.org/2000/svg" xmlns:xlink="http://www.w3.org/1999/xlink"><linearGradient id="a" gradientUnits="userSpaceOnUse" x1="248" x2="248" y1="496" y2="0"><stop offset="0" stop-color="#9f2fff"/><stop offset="1" stop-color="#0bb1d3"/></linearGradient><path d="m0 336h147.953125l-59.953125 142.382812v17.617188h61.414062l64-160h2.585938v128h64v-128h2.585938l64 160h61.414062v-17.617188l-59.953125-142.382812h147.953125v-336h-496zm138.585938 144h-33.90625l60.632812-144h30.871094zm125.414062-32h-32v-112h32zm127.320312 32h-33.90625l-57.597656-144h30.871094zm-375.320312-160v-32h464v32zm464-304v256h-464v-256zm-192 152c0 48.519531 39.480469 88 88 88s88-39.480469 88-88-39.480469-88-88-88-88 39.480469-88 88zm16.472656 8h63.527344v63.527344c-33.3125-3.703125-59.824219-30.207032-63.527344-63.527344zm143.527344-8c0 37-28.054688 67.535156-64 71.527344v-143.054688c35.945312 3.992188 64 34.527344 64 71.527344zm-80-71.527344v63.527344h-63.527344c3.703125-33.320312 30.214844-59.824219 63.527344-63.527344zm-320 20.976563v74.550781h128v-74.550781l11 8.796875 9.992188-12.492188-84.992188-67.992187-85 67.992187 9.992188 12.492188zm80 58.550781h-32v-32h32zm32-71.351562v71.351562h-16v-48h-64v48h-16v-71.351562l48-38.402344zm-128 135.351562h16v16h-16zm32 0h128v16h-128zm-32-32h160v16h-160zm192-104h-16v-72h112v48h-16v-32h-16v56h-16v-56h-16v72h-16v-72h-16zm0 0" fill="url(#a)"/></svg>